<svg height="160.14667" viewBox="0 0 601.61334 160.14667" width="601.61334" xmlns="http://www.w3.org/2000/svg"><g transform="matrix(.13333333 0 0 -.13333333 0 160.14667)"><g fill="#1a3a5e"><path d="m1336.11 797.129h105.84v-199.527l188.08 199.527h132.11l-188.07-190.09 206.27-291.207h-132.79l-144.94 216.391-60.66-61.36v-155.031h-105.84z"/><path d="m1924.93 378.531c65.4 0 84.94 55.946 84.94 111.211 0 55.946-19.54 111.906-84.94 111.906-64.71 0-84.26-55.96-84.26-111.906 0-55.265 19.55-111.211 84.26-111.211zm0 295.239c109.88 0 180.66-72.797 180.66-184.028 0-110.547-70.78-183.351-180.66-183.351-109.19 0-179.98 72.804-179.98 183.351 0 111.231 70.79 184.028 179.98 184.028"/><path d="m2134.14 664.336h90.99v-48.535h2.02c24.27 39.097 66.06 57.969 106.5 57.969 101.8 0 127.41-57.29 127.41-143.571v-214.367h-95.73v196.828c0 57.305-16.84 85.61-61.33 85.61-51.9 0-74.14-28.981-74.14-99.75v-182.688h-95.72z"/><path d="m2578.02 429.086c.67-41.797 35.72-58.652 73.48-58.652 27.63 0 62.68 10.781 62.68 44.48 0 28.996-39.76 39.106-108.53 53.93-55.27 12.136-110.55 31.695-110.55 93.035 0 88.969 76.84 111.891 151.67 111.891 76.18 0 146.28-25.614 153.69-111.227h-91c-2.7 37.086-31 47.187-65.38 47.187-21.58 0-53.26-4.046-53.26-32.343 0-34.383 53.93-39.11 108.53-51.914 55.95-12.813 110.54-33.028 110.54-97.743 0-91.679-79.53-121.339-159.08-121.339-80.89 0-159.75 30.343-163.79 122.695z"/><path d="m3080.44 527.492c-8.77 48.539-29.67 74.156-76.18 74.156-60.67 0-78.18-47.179-79.53-74.156zm-155.71-60.664c2.68-60.664 32.34-88.297 85.6-88.297 38.42 0 69.44 23.582 75.5 45.145h84.26c-26.96-82.235-84.26-117.285-163.13-117.285-109.88 0-177.95 75.507-177.95 183.351 0 104.496 72.11 184.028 177.95 184.028 118.64 0 175.94-99.762 169.2-206.942z"/><path d="m3212.78 664.336h91v-48.535h2.03c24.27 39.097 66.07 57.969 106.51 57.969 101.78 0 127.4-57.29 127.4-143.571v-214.367h-95.72v196.828c0 57.305-16.86 85.61-61.34 85.61-51.91 0-74.15-28.981-74.15-99.75v-182.688h-95.73z"/><path d="m3713.86 664.336h70.11v-64.043h-70.11v-172.563c0-22.382 18.2-40.46 40.58-40.441 10.06 0 19.46.684 29.53 2.688v-74.825c-16.19-2.687-37.08-3.371-55.96-3.371-58.63 0-109.87 13.489-109.87 82.918v205.594h-57.97v64.043h57.97v104.477h95.72z"/><path d="m4156.74 315.832h-91v48.527h-2.02c-24.27-39.089-66.06-57.968-106.5-57.968-101.8 0-127.4 57.297-127.4 143.574v214.371h95.71v-196.832c0-57.297 16.85-85.606 61.35-85.606 51.89 0 74.14 28.973 74.14 99.766v182.672h95.72z"/><path d="m4280.23 429.086c.67-41.797 35.72-58.652 73.47-58.652 27.63 0 62.68 10.781 62.68 44.48 0 28.996-39.76 39.106-108.53 53.93-55.26 12.136-110.54 31.695-110.54 93.035 0 88.969 76.84 111.891 151.67 111.891 76.18 0 146.28-25.614 153.69-111.227h-91c-2.7 37.086-31 47.187-65.39 47.187-21.57 0-53.25-4.046-53.25-32.343 0-34.383 53.92-39.11 108.52-51.914 55.96-12.813 110.55-33.028 110.55-97.743 0-91.679-79.53-121.339-159.08-121.339-80.89 0-159.76 30.343-163.79 122.695z"/><path d="m1025.56 862.703c-12.83 19.617-36.521 29.285-59.392 24.133-9.594-2.164-19.578-3.313-29.832-3.313-3.418 0-6.797.168-10.137.457-6.984.606-13.859-1.89-18.75-6.91l-9.406-9.664-149.277-157.383-144.95-152.187 144.95-152.195 149.492-157.168 28.234-29.895c-21.187-24.207-44.644-46.367-70.047-66.148-12.316-9.621-25.183-18.809-38.367-27.352l-21.32 22.434-142.57 150.031-194.891 204.512v-265.692c-51.453.758-100.098 13.731-142.899 36.328v570.395c42.801 22.594 91.446 35.457 142.899 36.215v-265.692l194.891 204.618 142.785 150.035 1.363 1.394c5.426 5.567 7.641 13.457 6.047 21.067-1.891 8.976-2.887 18.287-2.887 27.837 0 2.71.074 5.39.223 8.04 1.125 19.56-9.082 38.25-27.121 45.88-66.641 28.18-139.895 43.59-216.512 43.59-320.535 0-577.8399-270.066-556.89459-595.175 18.09769-279.973 247.78859-506.2348 528.14059-520.133281 122.082-6.281249 236.359 26.847681 330.82 87.796881 14.289 9.332 28.188 19.2424 41.52 29.5194 27.426 21.524 52.758 45.332 75.613 71.613 7.809 8.758 15.047 17.715 22.281 26.856 73.134 94.465 116.564 212.734 116.564 341.484 0 112.5-33.25 217.121-90.57 304.672"/></g><path d="m1023.53 1027.17c0-45.076-36.542-81.615-81.616-81.615-45.07 0-81.609 36.539-81.609 81.615 0 45.07 36.539 81.62 81.609 81.62 45.074 0 81.616-36.55 81.616-81.62" fill="#ee2e47"/><path d="m1116.79 1142.23c0-32.52-26.36-58.87-58.87-58.87s-58.869 26.35-58.869 58.87 26.359 58.87 58.869 58.87 58.87-26.35 58.87-58.87" fill="#63cce4"/></g></svg>